<svg width="50" height="50" viewBox="0 0 50 50" fill="none" xmlns="http://www.w3.org/2000/svg">
<rect x="0.5" y="0.5" width="49" height="49" rx="24.5" fill="#353D30" stroke="white"/>
<g clip-path="url(#clip0_170_1979)">
<rect width="17.6471" height="17.6471" rx="8.82353" transform="matrix(-1 0 0 1 33.8232 16.1768)" fill="#353D30"/>
<path d="M16.8232 23.4636L19.6688 20.5886C19.7372 20.5197 19.8185 20.465 19.9081 20.4276C19.9977 20.3903 20.0938 20.3711 20.1909 20.3711C20.288 20.3711 20.3841 20.3903 20.4737 20.4276C20.5633 20.465 20.6446 20.5197 20.7129 20.5886C20.8499 20.7264 20.9268 20.9127 20.9268 21.107C20.9268 21.3012 20.8499 21.4876 20.7129 21.6254L18.0953 24.2651H33.0879C33.283 24.2651 33.47 24.3425 33.6079 24.4804C33.7458 24.6183 33.8232 24.8053 33.8232 25.0004V25.0004C33.8232 25.1954 33.7458 25.3824 33.6079 25.5203C33.47 25.6582 33.283 25.7357 33.0879 25.7357H18.0512L20.7129 28.3901C20.7819 28.4584 20.8366 28.5397 20.8739 28.6293C20.9112 28.7189 20.9304 28.8151 20.9304 28.9121C20.9304 29.0092 20.9112 29.1053 20.8739 29.1949C20.8366 29.2845 20.7819 29.3658 20.7129 29.4342C20.6446 29.5031 20.5633 29.5578 20.4737 29.5951C20.3841 29.6325 20.288 29.6517 20.1909 29.6517C20.0938 29.6517 19.9977 29.6325 19.9081 29.5951C19.8185 29.5578 19.7372 29.5031 19.6688 29.4342L16.8232 26.5812C16.4102 26.1676 16.1781 25.607 16.1781 25.0224C16.1781 24.4379 16.4102 23.8772 16.8232 23.4636Z" fill="white"/>
</g>
<defs>
<clipPath id="clip0_170_1979">
<rect width="17.6471" height="17.6471" rx="8.82353" transform="matrix(-1 0 0 1 33.8232 16.1768)" fill="white"/>
</clipPath>
</defs>
</svg>
