<svg width="50" height="50" viewBox="0 0 50 50" fill="none" xmlns="http://www.w3.org/2000/svg">
<rect x="0.5" y="0.5" width="49" height="49" rx="24.5" fill="#353D30" stroke="white"/>
<g clip-path="url(#clip0_170_1982)">
<path d="M33.1768 23.4636L30.3312 20.5886C30.2628 20.5197 30.1815 20.465 30.0919 20.4276C30.0023 20.3903 29.9062 20.3711 29.8091 20.3711C29.712 20.3711 29.6159 20.3903 29.5263 20.4276C29.4367 20.465 29.3554 20.5197 29.2871 20.5886C29.1501 20.7264 29.0732 20.9127 29.0732 21.107C29.0732 21.3012 29.1501 21.4876 29.2871 21.6254L31.9047 24.2651H16.9121C16.717 24.2651 16.53 24.3425 16.3921 24.4804C16.2542 24.6183 16.1768 24.8053 16.1768 25.0004V25.0004C16.1768 25.1954 16.2542 25.3824 16.3921 25.5203C16.53 25.6582 16.717 25.7357 16.9121 25.7357H31.9488L29.2871 28.3901C29.2181 28.4584 29.1634 28.5397 29.1261 28.6293C29.0888 28.7189 29.0696 28.8151 29.0696 28.9121C29.0696 29.0092 29.0888 29.1053 29.1261 29.1949C29.1634 29.2845 29.2181 29.3658 29.2871 29.4342C29.3554 29.5031 29.4367 29.5578 29.5263 29.5951C29.6159 29.6325 29.712 29.6517 29.8091 29.6517C29.9062 29.6517 30.0023 29.6325 30.0919 29.5951C30.1815 29.5578 30.2628 29.5031 30.3312 29.4342L33.1768 26.5812C33.5898 26.1676 33.8219 25.607 33.8219 25.0224C33.8219 24.4379 33.5898 23.8772 33.1768 23.4636Z" fill="white"/>
</g>
<defs>
<clipPath id="clip0_170_1982">
<rect x="16.1768" y="16.1768" width="17.6471" height="17.6471" rx="8.82353" fill="white"/>
</clipPath>
</defs>
</svg>
