<svg width="86" height="86" viewBox="0 0 86 86" fill="none" xmlns="http://www.w3.org/2000/svg">
<circle cx="43" cy="43" r="43" fill="white"/>
<path d="M31 42.9867C31 43.2519 31.1054 43.5063 31.2929 43.6938C31.4804 43.8814 31.7348 43.9867 32 43.9867H51.586L47.294 48.2787C47.1118 48.4673 47.011 48.7199 47.0133 48.9821C47.0156 49.2443 47.1208 49.4951 47.3062 49.6805C47.4916 49.8659 47.7424 49.9711 48.0046 49.9734C48.2668 49.9757 48.5194 49.8749 48.708 49.6927L54.708 43.6927C54.8005 43.6007 54.874 43.4913 54.9241 43.3709C54.9742 43.2504 55 43.1212 55 42.9907V42.9867C55 42.8567 54.974 42.7267 54.922 42.6047C54.8722 42.4835 54.7987 42.3733 54.706 42.2807L48.706 36.2807C48.5174 36.0986 48.2648 35.9978 48.0026 36C47.7404 36.0023 47.4896 36.1075 47.3042 36.2929C47.1188 36.4783 47.0136 36.7291 47.0113 36.9913C47.009 37.2535 47.1098 37.5061 47.292 37.6947L51.586 41.9867H32C31.7348 41.9867 31.4804 42.0921 31.2929 42.2796C31.1054 42.4671 31 42.7215 31 42.9867Z" fill="black"/>
</svg>
