<svg width="14" height="14" viewBox="0 0 14 14" fill="none" xmlns="http://www.w3.org/2000/svg">
<path d="M4.45455 0C1.99214 0 0 1.99214 0 4.45455V9.54545C0 12.0079 1.99214 14 4.45455 14H9.54545C12.0079 14 14 12.0079 14 9.54545V4.45455C14 1.99214 12.0079 0 9.54545 0H4.45455ZM4.45455 0.636364H9.54545C10.5038 0.632667 11.4281 0.991292 12.1332 1.64036C12.8383 2.28944 13.272 3.181 13.3474 4.13636H0.652591C0.728031 3.181 1.16175 2.28944 1.86682 1.64036C2.57189 0.991292 3.49621 0.632667 4.45455 0.636364ZM0.636364 4.77273H13.3636V9.54545C13.3636 11.6661 11.6661 13.3636 9.54545 13.3636H4.45455C2.33386 13.3636 0.636364 11.6661 0.636364 9.54545V4.77273Z" fill="#C69E66"/>
<path d="M6.99991 6.04541C5.94927 6.04541 5.09082 6.90386 5.09082 7.9545C5.09082 9.00514 5.94927 9.86359 6.99991 9.86359C7.4704 9.86306 7.92395 9.68788 8.27264 9.372V10.1818C8.27264 10.8885 7.70659 11.4545 6.99991 11.4545C6.29323 11.4545 5.72718 10.8885 5.72718 10.1818C5.72718 10.0974 5.69366 10.0165 5.63399 9.95679C5.57432 9.89711 5.49339 9.86359 5.409 9.86359C5.32462 9.86359 5.24368 9.89711 5.18401 9.95679C5.12434 10.0165 5.09082 10.0974 5.09082 10.1818C5.09082 11.2324 5.94927 12.0909 6.99991 12.0909C8.05055 12.0909 8.909 11.2324 8.909 10.1818V7.9545C8.909 6.90386 8.05055 6.04541 6.99991 6.04541ZM6.99991 6.68177C7.70659 6.68177 8.27264 7.24782 8.27264 7.9545C8.27264 8.66118 7.70659 9.22723 6.99991 9.22723C6.29323 9.22723 5.72718 8.66118 5.72718 7.9545C5.72718 7.24782 6.29323 6.68177 6.99991 6.68177Z" fill="#C69E66"/>
</svg>
