<svg width="60" height="60" viewBox="0 0 60 60" fill="none" xmlns="http://www.w3.org/2000/svg">
<g clip-path="url(#clip0_170_2089)">
<mask id="mask0_170_2089" style="mask-type:luminance" maskUnits="userSpaceOnUse" x="0" y="0" width="60" height="60">
<path d="M60 0H0V60H60V0Z" fill="white"/>
</mask>
<g mask="url(#mask0_170_2089)">
<path d="M42.2339 46.4557C41.4769 46.2508 40.6868 46.1981 39.9093 46.3005C39.1319 46.4029 38.3824 46.6585 37.7043 47.0524L33.4514 49.5077L20.2795 26.7555C20.568 26.4028 20.742 25.9704 20.7783 25.5162C20.8146 25.062 20.7113 24.6075 20.4825 24.2135L7.29184 1.36518C6.92975 0.738062 6.33337 0.280458 5.63389 0.0930394C4.93441 -0.0943789 4.18913 0.00374007 3.56199 0.365812L1.36496 1.63424C0.738505 1.99695 0.281477 2.59332 0.0941278 3.29254C-0.0932217 3.99177 0.00440353 4.73675 0.36559 5.36409L11.6803 24.9616L11.767 25.1121L13.5567 28.2128C13.755 28.5556 14.0402 28.84 14.3834 29.0375C14.7266 29.235 15.1158 29.3386 15.5118 29.3378C15.629 29.3368 15.746 29.3265 15.8615 29.3069L29.4426 52.7678L31.7259 56.7227C32.5953 58.2264 34.026 59.3235 35.7038 59.773C37.3815 60.2226 39.1691 59.9879 40.6739 59.1203L43.6739 57.3893C44.6958 56.7988 45.5197 55.9186 46.0415 54.8599C46.5633 53.8013 46.7596 52.6117 46.6055 51.4415C46.4514 50.2714 45.9538 49.1732 45.1757 48.2857C44.3976 47.3983 43.3738 46.7614 42.2339 46.4557ZM9.83059 18.4764L13.9148 16.1186L16.8623 21.2233L12.7781 23.5816L9.83059 18.4764ZM2.18528 3.05549L4.38278 1.78706C4.50664 1.71543 4.64341 1.66891 4.78526 1.65017C4.92712 1.63143 5.07127 1.64083 5.20949 1.67783C5.34771 1.71483 5.47728 1.77872 5.5908 1.86582C5.70431 1.95293 5.79955 2.06156 5.87106 2.18549L13.095 14.6974L9.01028 17.0557L1.78637 4.54378C1.64225 4.29344 1.60331 3.99616 1.67809 3.71715C1.75288 3.43815 1.93528 3.20019 2.18528 3.05549ZM14.9784 27.3925L13.5984 25.0019L17.6831 22.6436L19.0626 25.0343C19.1437 25.1749 19.1656 25.3419 19.1236 25.4987C19.0816 25.6555 18.9791 25.7892 18.8385 25.8705L15.8146 27.6171C15.674 27.6981 15.507 27.72 15.3502 27.678C15.1934 27.636 15.0597 27.533 14.9784 27.3925ZM44.8692 53.3435C44.7233 53.8925 44.4701 54.4072 44.1242 54.8578C43.7782 55.3083 43.3463 55.6858 42.8535 55.9685L39.8535 57.7C39.2952 58.0225 38.6788 58.2318 38.0395 58.316C37.4002 58.4002 36.7506 58.3576 36.1278 58.1907C35.505 58.0238 34.9212 57.7359 34.4097 57.3433C33.8982 56.9508 33.469 56.4613 33.1467 55.9028L17.3592 28.6216L18.937 27.7094L32.4417 51.0391C32.5507 51.2272 32.7299 51.3644 32.9399 51.4205C33.15 51.4766 33.3737 51.447 33.562 51.3382L38.5242 48.4732C39.2657 48.045 40.1175 47.8463 40.9719 47.9024C41.8264 47.9584 42.645 48.2666 43.3242 48.788C44.0034 49.3093 44.5128 50.0205 44.7878 50.8313C45.0628 51.6422 45.0911 52.5165 44.8692 53.3435Z" fill="#A78448"/>
<path d="M41.5617 50.0626C41.4529 49.8742 41.2737 49.7367 41.0635 49.6804C40.8534 49.624 40.6294 49.6534 40.441 49.7622L35.0906 52.8512C34.9966 52.9047 34.9141 52.9762 34.8478 53.0617C34.7815 53.1472 34.7328 53.245 34.7044 53.3494C34.6761 53.4538 34.6687 53.5628 34.6826 53.6701C34.6966 53.7773 34.7316 53.8808 34.7857 53.9745C34.8398 54.0682 34.9119 54.1502 34.9978 54.216C35.0837 54.2817 35.1818 54.3297 35.2864 54.3574C35.391 54.385 35.5 54.3917 35.6072 54.3771C35.7144 54.3624 35.8176 54.3267 35.911 54.272L41.2613 51.1829C41.4496 51.0742 41.5871 50.8951 41.6435 50.685C41.6998 50.4749 41.6704 50.251 41.5617 50.0626Z" fill="#A78448"/>
<path d="M40.5929 52.9822L37.801 54.5942C37.6126 54.7034 37.4753 54.8829 37.4192 55.0933C37.3632 55.3037 37.393 55.5278 37.5022 55.7162C37.6113 55.9046 37.7909 56.0419 38.0013 56.098C38.2117 56.154 38.4357 56.1242 38.6241 56.015L41.416 54.403C41.6029 54.2934 41.7388 54.1144 41.7942 53.905C41.8496 53.6956 41.8199 53.4728 41.7116 53.2852C41.6032 53.0976 41.4251 52.9604 41.2161 52.9037C41.007 52.8469 40.784 52.8751 40.5957 52.9822H40.5929Z" fill="#A78448"/>
<path d="M52.1474 26.543C50.5945 26.543 49.0765 27.0035 47.7853 27.8662C46.4942 28.7289 45.4878 29.9552 44.8935 31.3899C44.2993 32.8246 44.1438 34.4032 44.4467 35.9263C44.7497 37.4493 45.4975 38.8484 46.5955 39.9464C47.6936 41.0445 49.0926 41.7923 50.6157 42.0952C52.1387 42.3982 53.7174 42.2427 55.1521 41.6484C56.5868 41.0542 57.813 40.0478 58.6758 38.7566C59.5385 37.4654 59.999 35.9474 59.999 34.3945C59.9966 32.3129 59.1687 30.3172 57.6967 28.8452C56.2248 27.3733 54.2291 26.5453 52.1474 26.543ZM52.1474 40.6055C50.919 40.6055 49.7182 40.2412 48.6968 39.5587C47.6754 38.8763 46.8794 37.9063 46.4093 36.7714C45.9392 35.6365 45.8162 34.3876 46.0558 33.1828C46.2955 31.978 46.887 30.8714 47.7556 30.0027C48.6243 29.1341 49.7309 28.5426 50.9357 28.3029C52.1406 28.0633 53.3894 28.1863 54.5243 28.6564C55.6592 29.1265 56.6292 29.9225 57.3116 30.9439C57.9941 31.9653 58.3584 33.1661 58.3584 34.3945C58.3565 36.0412 57.7016 37.6199 56.5372 38.7843C55.3728 39.9486 53.7941 40.6036 52.1474 40.6055Z" fill="#A78448"/>
<path d="M51.9571 31.0615C52.1747 31.0615 52.3833 30.9751 52.5372 30.8212C52.691 30.6674 52.7774 30.4587 52.7774 30.2412C52.7774 30.0236 52.691 29.815 52.5372 29.6611C52.3833 29.5073 52.1747 29.4209 51.9571 29.4209H51.6055C51.388 29.4209 51.1793 29.5073 51.0255 29.6611C50.8717 29.815 50.7852 30.0236 50.7852 30.2412C50.7852 30.4587 50.8717 30.6674 51.0255 30.8212C51.1793 30.9751 51.388 31.0615 51.6055 31.0615H51.9571Z" fill="#A78448"/>
<path d="M55.4736 31.1787H55.1221C54.9045 31.1787 54.6959 31.2651 54.542 31.4189C54.3882 31.5728 54.3018 31.7814 54.3018 31.999C54.3018 32.2166 54.3882 32.4252 54.542 32.579C54.6959 32.7329 54.9045 32.8193 55.1221 32.8193H55.4736C55.6912 32.8193 55.8998 32.7329 56.0537 32.579C56.2075 32.4252 56.2939 32.2166 56.2939 31.999C56.2939 31.7814 56.2075 31.5728 56.0537 31.4189C55.8998 31.2651 55.6912 31.1787 55.4736 31.1787Z" fill="#A78448"/>
<path d="M52.7705 33.2227H52.4189C52.2014 33.2227 51.9927 33.3091 51.8389 33.4629C51.685 33.6168 51.5986 33.8254 51.5986 34.043C51.5986 34.2605 51.685 34.4692 51.8389 34.623C51.9927 34.7769 52.2014 34.8633 52.4189 34.8633H52.7705C52.9881 34.8633 53.1967 34.7769 53.3505 34.623C53.5044 34.4692 53.5908 34.2605 53.5908 34.043C53.5908 33.8254 53.5044 33.6168 53.3505 33.4629C53.1967 33.3091 52.9881 33.2227 52.7705 33.2227Z" fill="#A78448"/>
<path d="M25.7963 55.2918C21.8504 54.8944 18.0419 53.6263 14.6454 51.5791C11.2489 49.5319 8.34893 46.7565 6.1547 43.453C6.09565 43.3617 6.01902 43.283 5.92928 43.2216C5.83954 43.1601 5.73848 43.1171 5.63197 43.0951C5.52546 43.0731 5.41564 43.0724 5.30888 43.0932C5.20213 43.114 5.10058 43.1559 5.01014 43.2163C4.91971 43.2767 4.84219 43.3545 4.78209 43.4452C4.722 43.5358 4.68053 43.6375 4.66011 43.7443C4.63968 43.8512 4.6407 43.961 4.66311 44.0674C4.68552 44.1738 4.72887 44.2747 4.79063 44.3643C7.11914 47.8689 10.1962 50.8132 13.8001 52.9849C17.404 55.1566 21.4448 56.5016 25.6313 56.923C25.6594 56.9254 25.687 56.9268 25.7147 56.9268C25.9249 56.9264 26.127 56.8453 26.2792 56.7002C26.4313 56.5552 26.522 56.3573 26.5325 56.1473C26.5429 55.9373 26.4724 55.7313 26.3354 55.5719C26.1984 55.4124 26.0054 55.3117 25.7963 55.2904V55.2918Z" fill="#A78448"/>
<path d="M11.8119 45.1698C11.9723 45.1699 12.1292 45.123 12.2632 45.0348C12.3972 44.9467 12.5024 44.8212 12.5657 44.6738C12.6291 44.5265 12.6479 44.3638 12.6197 44.2059C12.5915 44.048 12.5177 43.9019 12.4073 43.7856C12.0909 43.4513 11.7829 43.1049 11.4909 42.7543C11.4218 42.6716 11.3371 42.6034 11.2417 42.5534C11.1462 42.5035 11.0419 42.4728 10.9346 42.4632C10.8273 42.4536 10.7191 42.4652 10.6163 42.4974C10.5135 42.5295 10.4181 42.5816 10.3354 42.6507C10.2527 42.7198 10.1845 42.8045 10.1345 42.8999C10.0846 42.9953 10.0539 43.0997 10.0443 43.207C10.0347 43.3143 10.0463 43.4224 10.0784 43.5252C10.1106 43.628 10.1627 43.7235 10.2318 43.8062C10.5449 44.1812 10.8763 44.5538 11.2162 44.9124C11.2926 44.9937 11.3849 45.0585 11.4874 45.1028C11.5899 45.1471 11.7003 45.1699 11.8119 45.1698Z" fill="#A78448"/>
<path d="M23.9627 51.9426C24.0692 51.9651 24.1791 51.9662 24.286 51.9459C24.3929 51.9255 24.4947 51.8841 24.5855 51.824C24.6762 51.7639 24.7541 51.6863 24.8146 51.5958C24.875 51.5053 24.9169 51.4037 24.9377 51.2968C24.9585 51.19 24.9579 51.0801 24.9358 50.9735C24.9137 50.8669 24.8706 50.7658 24.809 50.6761C24.7475 50.5863 24.6687 50.5097 24.5772 50.4507C24.4857 50.3917 24.3834 50.3515 24.2763 50.3324C20.8516 49.6584 17.6338 48.1876 14.883 46.0391C14.7116 45.9052 14.4939 45.8448 14.278 45.8713C14.062 45.8978 13.8655 46.009 13.7315 46.1805C13.5976 46.3519 13.5372 46.5695 13.5637 46.7855C13.5902 47.0014 13.7014 47.198 13.8729 47.3319C16.8277 49.6394 20.2842 51.2189 23.9627 51.9426Z" fill="#A78448"/>
</g>
</g>
<defs>
<clipPath id="clip0_170_2089">
<rect width="60" height="60" fill="white"/>
</clipPath>
</defs>
</svg>
