<svg width="60" height="60" viewBox="0 0 60 60" fill="none" xmlns="http://www.w3.org/2000/svg">
<g clip-path="url(#clip0_170_2127)">
<mask id="mask0_170_2127" style="mask-type:luminance" maskUnits="userSpaceOnUse" x="0" y="0" width="60" height="60">
<path d="M60 0H0V60H60V0Z" fill="white"/>
</mask>
<g mask="url(#mask0_170_2127)">
<path d="M18.3867 35.913C18.9211 35.913 19.3544 35.4797 19.3544 34.9453C19.3544 34.4108 18.9211 33.9775 18.3867 33.9775C17.8522 33.9775 17.4189 34.4108 17.4189 34.9453C17.4189 35.4797 17.8522 35.913 18.3867 35.913Z" fill="#A78448"/>
<path d="M10.6455 28.1708C11.1799 28.1708 11.6132 27.7376 11.6132 27.2031C11.6132 26.6686 11.1799 26.2354 10.6455 26.2354C10.111 26.2354 9.67773 26.6686 9.67773 27.2031C9.67773 27.7376 10.111 28.1708 10.6455 28.1708Z" fill="#A78448"/>
<path d="M12.1292 29.795C11.925 29.3014 11.3589 29.0663 10.8643 29.2714C10.3708 29.4755 10.1357 30.0416 10.3408 30.5362C10.5449 31.0298 11.111 31.2648 11.6056 31.0598C12.0992 30.8556 12.3334 30.2895 12.1292 29.795Z" fill="#A78448"/>
<path d="M12.2281 31.993C11.8497 32.3714 11.8497 32.9839 12.2281 33.3614C12.6065 33.7388 13.2191 33.7398 13.5965 33.3614C13.9749 32.983 13.9749 32.3704 13.5965 31.993C13.2191 31.6156 12.6065 31.6156 12.2281 31.993Z" fill="#A78448"/>
<path d="M15.7946 33.4615C15.301 33.2573 14.7349 33.4915 14.5298 33.9851C14.3257 34.4787 14.5598 35.0448 15.0534 35.2499C15.547 35.454 16.1131 35.2199 16.3182 34.7263C16.5233 34.2317 16.2881 33.6657 15.7946 33.4615Z" fill="#A78448"/>
<path d="M18.3867 32.0419C18.9211 32.0419 19.3544 31.6086 19.3544 31.0741C19.3544 30.5397 18.9211 30.1064 18.3867 30.1064C17.8522 30.1064 17.4189 30.5397 17.4189 31.0741C17.4189 31.6086 17.8522 32.0419 18.3867 32.0419Z" fill="#A78448"/>
<path d="M14.5157 28.1708C15.0501 28.1708 15.4834 27.7376 15.4834 27.2031C15.4834 26.6686 15.0501 26.2354 14.5157 26.2354C13.9812 26.2354 13.5479 26.6686 13.5479 27.2031C13.5479 27.7376 13.9812 28.1708 14.5157 28.1708Z" fill="#A78448"/>
<path d="M14.9654 29.2557C14.587 29.6341 14.587 30.2467 14.9654 30.6241C15.3438 31.0025 15.9564 31.0025 16.3338 30.6241C16.7122 30.2457 16.7122 29.6332 16.3338 29.2557C15.9564 28.8783 15.3438 28.8783 14.9654 29.2557Z" fill="#A78448"/>
<path d="M60 4.73242L39.8129 8.76988L38.8307 8.27922C37.0016 7.36468 34.9539 6.88082 32.9081 6.88082H23.2879C19.9027 6.88082 16.5881 7.81375 13.7004 9.57882L1.9268 16.773C0.738398 17.4999 0 18.816 0 20.2734C0 22.4934 1.8068 24.3002 4.0268 24.3002C4.72652 24.3002 5.41652 24.1172 6.02426 23.7699L6.34266 23.5879C5.99332 24.755 5.80652 25.9715 5.80652 27.2034C5.80652 31.6879 8.17172 35.6208 11.7127 37.8486H9.67746V40.7518C9.67746 42.3524 10.98 43.655 12.5807 43.655H12.9223C14.012 45.9718 14.7416 48.427 15.06 50.9731L15.5971 55.2679H21.1771L21.7141 50.9731C22.0325 48.427 22.7621 45.9728 23.8519 43.655H24.1935C25.7941 43.655 27.0967 42.3524 27.0967 40.7518V37.8486H25.0615C28.6024 35.6208 30.9676 31.6879 30.9676 27.2034C30.9676 25.5359 30.6356 23.8898 30.0008 22.3647H30.4247C31.5076 22.3647 32.5886 22.2311 33.6367 21.9688C35.3583 21.5391 36.9512 20.7804 38.3708 19.715L39.9124 18.5595L60 22.5766V4.73242ZM19.7932 50.7322L19.468 53.3324H17.306L16.9808 50.7322C16.674 48.2828 16.0111 45.9128 15.0415 43.6551H21.7324C20.7629 45.9138 20.1 48.2827 19.7932 50.7322ZM25.1613 39.784V40.7518C25.1613 41.285 24.7268 41.7195 24.1936 41.7195H12.5807C12.0475 41.7195 11.6129 41.285 11.6129 40.7518V39.784H25.1613ZM29.0323 27.2034C29.0323 33.0727 24.2564 37.8486 18.3871 37.8486C12.5177 37.8486 7.74188 33.0727 7.74188 27.2034C7.74188 25.3763 8.22188 23.5888 9.10934 22.0066L15.6503 18.2691C15.5516 18.6523 15.4839 19.0471 15.4839 19.4614C15.4839 21.062 16.7864 22.3646 18.3871 22.3646H27.8468C28.6113 23.857 29.0323 25.5127 29.0323 27.2034ZM37.2087 18.1676C35.9961 19.0763 34.6364 19.7238 33.1664 20.0915C32.2712 20.316 31.3489 20.4292 30.4239 20.4292H18.3871C17.8539 20.4292 17.4193 19.9947 17.4193 19.4615C17.4193 17.8608 18.7219 16.5583 20.3225 16.5583H30V14.6228H20.3225C19.5696 14.6228 18.8661 14.8106 18.2303 15.1183C17.0244 15.4406 15.8651 15.9167 14.7832 16.536L5.06414 22.0888C4.74867 22.2688 4.38961 22.3647 4.02668 22.3647C2.87309 22.3647 1.93535 21.426 1.93535 20.2086C1.93535 19.4856 2.31855 18.8015 2.93602 18.425L14.7096 11.2298C17.2935 9.65043 20.2596 8.81617 23.2876 8.81617H32.9079C34.6547 8.81617 36.4034 9.22937 37.9654 10.0103L38.7095 10.3819V17.0419L37.2087 18.1676ZM58.0645 20.2163L40.6452 16.7324V10.5776L58.0645 7.09375V20.2163Z" fill="#A78448"/>
</g>
</g>
<defs>
<clipPath id="clip0_170_2127">
<rect width="60" height="60" fill="white"/>
</clipPath>
</defs>
</svg>
