<svg width="60" height="60" viewBox="0 0 60 60" fill="none" xmlns="http://www.w3.org/2000/svg">
<g clip-path="url(#clip0_170_2112)">
<path d="M29.9997 48.75C29.8668 48.75 29.7354 48.7783 29.6143 48.833C29.4932 48.8877 29.385 48.9675 29.2971 49.0671C29.2091 49.1668 29.1434 49.284 29.1042 49.411C29.065 49.538 29.0532 49.6719 29.0697 49.8038L30.0072 57.3038C30.0356 57.5304 30.1457 57.739 30.3169 57.8902C30.4882 58.0414 30.7088 58.1249 30.9372 58.125H34.6872C34.9157 58.1249 35.1363 58.0414 35.3075 57.8902C35.4788 57.739 35.5889 57.5304 35.6172 57.3038L36.5547 49.8038C36.5712 49.6719 36.5595 49.538 36.5203 49.411C36.4811 49.284 36.4153 49.1668 36.3274 49.0671C36.2394 48.9675 36.1313 48.8877 36.0101 48.833C35.889 48.7783 35.7576 48.75 35.6247 48.75H29.9997ZM33.8594 56.25H31.765L31.0619 50.625H34.5625L33.8594 56.25Z" fill="#A78448"/>
<path d="M30 41.25H31.875V43.125H30V41.25Z" fill="#A78448"/>
<path d="M33.75 41.25H35.625V43.125H33.75V41.25Z" fill="#A78448"/>
<path d="M34.6875 37.5H36.5625V39.375H34.6875V37.5Z" fill="#A78448"/>
<path d="M30.9375 37.5H32.8125V39.375H30.9375V37.5Z" fill="#A78448"/>
<path d="M9.375 5.625H11.25V20.625H9.375V5.625Z" fill="#A78448"/>
<path d="M13.125 1.875H15V15.9375H13.125V1.875Z" fill="#A78448"/>
<path d="M40.2694 40.1663C40.8247 40.3275 41.4101 40.3563 41.9786 40.2504C42.547 40.1445 43.0828 39.9068 43.5427 39.5564C44.0027 39.206 44.3742 38.7526 44.6273 38.2327C44.8803 37.7127 45.008 37.1407 45 36.5625V34.7812L45.9187 30.1875C45.9318 30.1259 45.9381 30.063 45.9375 30V21.7838L47.7188 18.2316C49.5858 14.6223 50.5811 10.6258 50.625 6.5625V2.8125C50.625 2.56386 50.5262 2.3254 50.3504 2.14959C50.1746 1.97377 49.9361 1.875 49.6875 1.875H30C29.7514 1.87505 29.513 1.97386 29.3372 2.14969L19.9622 11.5247C16.875 14.6119 16.875 16.74 16.875 19.6875V28.125C16.8788 29.6447 17.2167 31.145 17.8647 32.5197C18.5127 33.8943 19.4551 35.1097 20.625 36.0797V37.5C20.625 38.4946 21.0201 39.4484 21.7234 40.1517C22.4266 40.8549 23.3804 41.25 24.375 41.25C24.7577 41.2442 25.1373 41.1791 25.5 41.0569C25.8993 42.7844 26.8978 44.3146 28.3182 45.3759C29.7386 46.4372 31.489 46.9609 33.2589 46.8541C35.0288 46.7474 36.7036 46.017 37.9861 44.7927C39.2686 43.5684 40.0759 41.9293 40.2647 40.1663H40.2694ZM40.3125 3.75C41.0584 3.75 41.7738 4.04632 42.3012 4.57376C42.8287 5.10121 43.125 5.81658 43.125 6.5625C43.125 7.30842 42.8287 8.02379 42.3012 8.55124C41.7738 9.07868 41.0584 9.375 40.3125 9.375H32.2631L37.8881 3.75H40.3125ZM30.3881 3.75H35.2369L29.6119 9.375H24.7631L30.3881 3.75ZM26.25 27.1875V37.5C26.25 37.9973 26.0525 38.4742 25.7008 38.8258C25.3492 39.1775 24.8723 39.375 24.375 39.375C23.8777 39.375 23.4008 39.1775 23.0492 38.8258C22.6975 38.4742 22.5 37.9973 22.5 37.5V25.3125C22.5194 24.7111 22.6733 24.1217 22.9502 23.5875C23.2271 23.0533 23.6201 22.5878 24.1003 22.2253L28.7878 17.5378L27.4622 16.2122L22.7747 20.8997C22.1158 21.4336 21.5819 22.1053 21.2105 22.8677C20.8391 23.6301 20.6392 24.4646 20.625 25.3125V33.4125C19.4177 31.914 18.7565 30.0493 18.75 28.125V19.6875C18.75 16.8244 18.75 15.3881 21.2878 12.8503L22.8881 11.25H40.3125C41.5552 11.2485 42.7467 10.7542 43.6254 9.87542C44.5042 8.99667 44.9985 7.80525 45 6.5625C44.9966 5.54487 44.6586 4.55661 44.0381 3.75H48.75V6.5625C48.7024 10.3356 47.7713 14.0451 46.0312 17.3934L44.1562 21.1434C44.093 21.274 44.0609 21.4174 44.0625 21.5625V29.9063L43.1438 34.5C43.1307 34.5616 43.1244 34.6245 43.125 34.6875V36.5625C43.125 37.0598 42.9275 37.5367 42.5758 37.8883C42.2242 38.24 41.7473 38.4375 41.25 38.4375C40.7527 38.4375 40.2758 38.24 39.9242 37.8883C39.5725 37.5367 39.375 37.0598 39.375 36.5625V24.375C39.375 24.2295 39.3411 24.0859 39.276 23.9557C39.2109 23.8256 39.1164 23.7123 39 23.625L35.25 20.8125C35.0877 20.6908 34.8903 20.625 34.6875 20.625C34.4847 20.625 34.2873 20.6908 34.125 20.8125L26.625 26.4375C26.5086 26.5248 26.4141 26.6381 26.349 26.7682C26.2839 26.8984 26.25 27.042 26.25 27.1875ZM28.125 30V27.6563L34.6875 22.7344L36.8747 24.375H33.75V26.25H37.5V30H28.125ZM37.5 31.875V33.5419C36.1757 32.4636 34.5202 31.8749 32.8125 31.8749C31.1048 31.8749 29.4493 32.4636 28.125 33.5419V31.875H37.5ZM32.8125 45C31.4124 45.0073 30.0606 44.4881 29.0254 43.5453C27.9903 42.6025 27.3473 41.305 27.2241 39.9103C27.8018 39.2398 28.1212 38.3851 28.125 37.5V36.2888C28.6336 35.5092 29.3286 34.8688 30.1471 34.4255C30.9656 33.9822 31.8817 33.75 32.8125 33.75C33.7433 33.75 34.6594 33.9822 35.4779 34.4255C36.2964 34.8688 36.9914 35.5092 37.5 36.2888V36.5625C37.504 37.4542 37.828 38.3149 38.4131 38.9878C38.4234 39.1163 38.4375 39.2428 38.4375 39.375C38.436 40.8664 37.8429 42.2963 36.7883 43.3508C35.7338 44.4054 34.3039 44.9985 32.8125 45Z" fill="#A78448"/>
</g>
<defs>
<clipPath id="clip0_170_2112">
<rect width="60" height="60" fill="white"/>
</clipPath>
</defs>
</svg>
