<svg width="14" height="14" viewBox="0 0 14 14" fill="none" xmlns="http://www.w3.org/2000/svg">
<path d="M6.99353 0C4.50932 0 2.4859 1.76682 2.4859 3.93599C2.48538 3.98288 2.49349 4.02955 2.50994 4.07419C2.55201 5.45528 3.23717 6.6632 4.04253 7.78277C4.87595 8.93995 5.84058 10.0245 6.45962 11.1319C6.50033 11.2048 6.56348 11.2665 6.64201 11.3099C6.72054 11.3533 6.81135 11.3767 6.90429 11.3776C6.99723 11.3786 7.08862 11.3569 7.16824 11.315C7.24787 11.2731 7.31258 11.2128 7.35514 11.1406C8.00624 10.0342 9.01996 8.94782 9.89544 7.79151C10.7699 6.63521 11.5172 5.38619 11.5172 3.94299C11.5181 3.88742 11.5069 3.8322 11.4841 3.7803C11.387 1.68548 9.41663 0 6.99353 0ZM6.99353 0.874665C8.93682 0.874665 10.4995 2.24002 10.4995 3.93599C10.4989 3.96741 10.5023 3.99879 10.5095 4.02958C10.4794 5.17364 9.8744 6.23374 9.06003 7.30957C8.37086 8.2201 7.59154 9.16036 6.9194 10.1374C6.28132 9.16474 5.54608 8.22622 4.89197 7.31832C4.09763 6.21362 3.50362 5.12729 3.50362 3.94211C3.5035 3.91659 3.50082 3.89113 3.49561 3.86602C3.51346 3.06663 3.88998 2.30531 4.54416 1.74588C5.19833 1.18644 6.07787 0.873596 6.99353 0.874665ZM6.99353 2.62574C6.17014 2.62574 5.49099 3.21877 5.49099 3.93774C5.49099 4.65672 6.17014 5.24974 6.99353 5.24974C7.81792 5.24974 8.49607 4.65672 8.49607 3.93774C8.49607 3.21877 7.81792 2.62574 6.99353 2.62574ZM6.99353 3.50041C7.27601 3.50041 7.49438 3.69109 7.49438 3.93774C7.49438 4.1844 7.27601 4.37507 6.99353 4.37507C6.92749 4.3759 6.86194 4.36515 6.80075 4.34346C6.73956 4.32178 6.68397 4.28959 6.63727 4.24882C6.59057 4.20804 6.55372 4.1595 6.52888 4.10607C6.50405 4.05264 6.49174 3.9954 6.49268 3.93774C6.49268 3.69109 6.71105 3.50041 6.99353 3.50041ZM11.0905 8.07228C10.9738 8.07253 10.8608 8.10836 10.7711 8.17358C10.6815 8.2388 10.6207 8.32932 10.5993 8.4295C10.5779 8.52968 10.5973 8.63324 10.654 8.72228C10.7108 8.81133 10.8014 8.88027 10.9102 8.91721C11.9088 9.27057 12.5509 9.73327 12.8274 10.1592C13.1049 10.5852 13.0979 10.9534 12.7362 11.4065C12.01 12.3127 9.6951 13.1156 7.05263 13.1252C4.40916 13.134 2.06218 12.3529 1.29489 11.4441C0.911237 10.9893 0.892204 10.6193 1.14964 10.1951C1.40808 9.77176 2.02612 9.30468 3.00879 8.94432C3.07226 8.92389 3.13034 8.89244 3.17952 8.85187C3.22869 8.8113 3.26795 8.76245 3.29491 8.70827C3.32187 8.65409 3.33598 8.5957 3.33639 8.53663C3.3368 8.47756 3.3235 8.41903 3.2973 8.36456C3.27109 8.3101 3.23252 8.26084 3.18391 8.21976C3.1353 8.17867 3.07766 8.14661 3.01447 8.1255C2.95128 8.1044 2.88385 8.0947 2.81625 8.09697C2.74864 8.09925 2.68227 8.11347 2.62113 8.13876C1.49923 8.54985 0.680847 9.10264 0.265143 9.78575C-0.15056 10.468 -0.0784381 11.2919 0.488521 11.9637C1.62244 13.3054 4.20581 14.0104 7.05864 13.9999C9.91046 13.9894 12.4698 13.2678 13.5576 11.9094C14.1016 11.2298 14.1386 10.4024 13.6979 9.72715C13.2591 9.05191 12.4227 8.50786 11.2858 8.10639C11.224 8.08342 11.1576 8.07152 11.0905 8.07141V8.07228Z" fill="#C69E66"/>
</svg>
