<svg width="195" height="160" viewBox="0 0 195 160" fill="none" xmlns="http://www.w3.org/2000/svg">
<path d="M30.6357 150.936C29.9441 151.68 29.1544 152.05 28.2572 152.05C27.7385 152.05 27.2525 151.937 26.8086 151.708C26.3646 151.479 25.9815 151.18 25.659 150.81C25.3366 150.441 25.0796 150.015 24.8927 149.538C24.7058 149.061 24.6123 148.57 24.6123 148.065C24.6123 147.56 24.7058 147.036 24.888 146.564C25.0702 146.091 25.3226 145.67 25.645 145.31C25.9674 144.945 26.3506 144.66 26.7992 144.445C27.2478 144.23 27.7291 144.127 28.2525 144.127C29.0095 144.127 29.631 144.286 30.117 144.599C30.603 144.913 30.9768 145.324 31.2338 145.834L30.4768 146.362C30.2431 145.909 29.9301 145.567 29.5422 145.348C29.1544 145.128 28.7151 145.016 28.2338 145.016C27.8366 145.016 27.4768 145.1 27.1544 145.273C26.8319 145.446 26.5562 145.675 26.3273 145.956C26.0983 146.236 25.9254 146.564 25.7992 146.938C25.6731 147.307 25.6123 147.691 25.6123 148.088C25.6123 148.504 25.6824 148.902 25.8226 149.271C25.9628 149.641 26.1544 149.968 26.3927 150.254C26.631 150.539 26.9207 150.759 27.2525 150.918C27.5843 151.081 27.9394 151.161 28.3319 151.161C29.1824 151.161 29.9488 150.749 30.631 149.926V148.846H28.9488V148.098H31.4674V151.993H30.631V150.936H30.6357Z" fill="#C69E66"/>
<path d="M37.2481 152.045C36.6967 152.045 36.1967 151.933 35.7481 151.708C35.2995 151.484 34.9116 151.189 34.5892 150.815C34.2668 150.445 34.0191 150.02 33.8416 149.543C33.664 149.066 33.5752 148.579 33.5752 148.079C33.5752 147.579 33.6687 147.059 33.8556 146.582C34.0425 146.105 34.2995 145.684 34.6313 145.315C34.963 144.95 35.3509 144.656 35.8042 144.44C36.2574 144.225 36.7434 144.118 37.2715 144.118C37.7995 144.118 38.3182 144.235 38.7668 144.464C39.2154 144.693 39.5986 144.997 39.921 145.371C40.2434 145.745 40.4911 146.171 40.6687 146.643C40.8462 147.116 40.935 147.597 40.935 148.093C40.935 148.612 40.8416 149.113 40.6546 149.59C40.4677 150.067 40.2107 150.488 39.8836 150.852C39.5565 151.217 39.1687 151.507 38.7154 151.722C38.2621 151.937 37.7761 152.045 37.2481 152.045ZM34.5752 148.084C34.5752 148.481 34.6406 148.865 34.7668 149.234C34.893 149.604 35.0752 149.931 35.3135 150.221C35.5472 150.506 35.8322 150.735 36.1593 150.904C36.4911 151.072 36.8556 151.156 37.2574 151.156C37.6593 151.156 38.0518 151.067 38.3789 150.885C38.7107 150.707 38.9911 150.469 39.2201 150.179C39.449 149.889 39.6266 149.562 39.7481 149.192C39.8696 148.827 39.9303 148.453 39.9303 148.079C39.9303 147.681 39.8649 147.298 39.7387 146.928C39.6126 146.559 39.4257 146.232 39.1873 145.946C38.949 145.666 38.6687 145.437 38.3416 145.268C38.0144 145.1 37.6546 145.016 37.2574 145.016C36.8416 145.016 36.4677 145.105 36.1359 145.282C35.8042 145.46 35.5238 145.689 35.2948 145.974C35.0658 146.26 34.8836 146.587 34.7621 146.957C34.6359 147.321 34.5752 147.7 34.5752 148.079V148.084Z" fill="#C69E66"/>
<path d="M43.4062 151.994V144.179H44.3969V151.114H48.752V151.994H43.4062Z" fill="#C69E66"/>
<path d="M50.9297 151.994V144.179H56.0886V145.058H51.9203V147.668H55.4297V148.495H51.9203V151.998H50.9297V151.994Z" fill="#C69E66"/>
<path d="M67.2895 151.994L66.4764 151.147C66.1634 151.456 65.8082 151.694 65.4157 151.858C65.0232 152.022 64.6026 152.106 64.154 152.106C63.7942 152.106 63.4624 152.05 63.154 151.942C62.8456 151.83 62.5792 151.68 62.3503 151.484C62.1213 151.287 61.9437 151.058 61.8176 150.796C61.6914 150.53 61.626 150.244 61.626 149.926C61.626 149.669 61.668 149.431 61.7521 149.211C61.8363 148.991 61.9484 148.79 62.0933 148.607C62.2381 148.425 62.397 148.252 62.5839 148.098C62.7662 147.939 62.9624 147.794 63.168 147.653C62.9905 147.457 62.8409 147.275 62.7148 147.116C62.5886 146.952 62.4905 146.802 62.411 146.657C62.3363 146.512 62.2755 146.377 62.2428 146.25C62.2054 146.124 62.1867 145.988 62.1867 145.848C62.1867 145.6 62.2381 145.366 62.3409 145.147C62.4437 144.931 62.5839 144.744 62.7662 144.585C62.9437 144.426 63.1587 144.305 63.4063 144.216C63.654 144.127 63.9157 144.085 64.2054 144.085C64.4671 144.085 64.7148 144.122 64.9484 144.197C65.1821 144.272 65.383 144.375 65.5512 144.515C65.7241 144.656 65.8596 144.824 65.9577 145.02C66.0559 145.217 66.1073 145.437 66.1073 145.68C66.1073 145.9 66.0652 146.105 65.9811 146.297C65.897 146.489 65.7849 146.667 65.64 146.83C65.4951 146.994 65.3269 147.153 65.1306 147.298C64.9344 147.443 64.7241 147.593 64.5045 147.738L66.4951 149.828C66.6353 149.562 66.7428 149.276 66.8176 148.963C66.8923 148.65 66.9344 148.318 66.9344 147.967H67.7381C67.7288 148.444 67.668 148.888 67.5559 149.3C67.4437 149.711 67.2802 150.085 67.0652 150.422L68.5746 151.998H67.2989L67.2895 151.994ZM64.2521 151.329C64.5839 151.329 64.8923 151.264 65.1774 151.133C65.4624 151.002 65.7194 150.82 65.9484 150.581L63.7241 148.238C63.3783 148.486 63.0979 148.748 62.883 149.014C62.668 149.281 62.5606 149.59 62.5606 149.936C62.5606 150.156 62.6073 150.352 62.7054 150.53C62.7989 150.707 62.925 150.852 63.0839 150.969C63.2428 151.086 63.4204 151.175 63.6213 151.241C63.8222 151.301 64.0325 151.334 64.2521 151.334V151.329ZM63.0792 145.815C63.0792 145.895 63.0933 145.974 63.1166 146.054C63.1447 146.129 63.1867 146.218 63.2475 146.32C63.3082 146.419 63.397 146.536 63.5045 146.671C63.6166 146.807 63.7568 146.966 63.9344 147.148C64.3176 146.905 64.6213 146.671 64.8596 146.447C65.0933 146.222 65.2101 145.97 65.2101 145.694C65.2101 145.437 65.1166 145.226 64.925 145.062C64.7335 144.899 64.4905 144.815 64.2007 144.815C63.869 144.815 63.6026 144.913 63.3923 145.105C63.1821 145.301 63.0792 145.535 63.0792 145.815Z" fill="#C69E66"/>
<path d="M74.0332 148.028C74.0332 147.56 74.1173 147.092 74.2809 146.625C74.4444 146.157 74.6874 145.741 75.0052 145.371C75.3229 145.002 75.7155 144.702 76.1781 144.473C76.6407 144.244 77.164 144.132 77.7528 144.132C78.4491 144.132 79.0472 144.291 79.5472 144.604C80.0472 144.918 80.4164 145.329 80.6594 145.839L79.879 146.344C79.7622 146.096 79.622 145.886 79.4538 145.717C79.2902 145.549 79.108 145.413 78.9164 145.31C78.7201 145.208 78.5239 145.133 78.3183 145.091C78.1126 145.049 77.9117 145.025 77.7154 145.025C77.2809 145.025 76.8977 145.114 76.5659 145.296C76.2341 145.474 75.9538 145.713 75.7248 146.003C75.4958 146.293 75.3276 146.62 75.2155 146.985C75.1033 147.35 75.0472 147.714 75.0472 148.079C75.0472 148.491 75.1173 148.879 75.2528 149.253C75.3883 149.622 75.5753 149.95 75.8183 150.24C76.0612 150.53 76.3463 150.754 76.6781 150.923C77.0098 151.091 77.365 151.175 77.7575 151.175C77.9631 151.175 78.1734 151.152 78.3883 151.1C78.6033 151.049 78.8136 150.965 79.0098 150.852C79.2061 150.74 79.393 150.595 79.5659 150.422C79.7388 150.249 79.879 150.043 79.9911 149.8L80.8183 150.254C80.6921 150.548 80.5192 150.806 80.2949 151.03C80.0706 151.255 79.8183 151.442 79.5379 151.596C79.2575 151.75 78.9584 151.867 78.6407 151.947C78.3229 152.026 78.0192 152.068 77.7154 152.068C77.1781 152.068 76.6874 151.952 76.2435 151.718C75.7949 151.484 75.407 151.175 75.0846 150.796C74.7575 150.418 74.5052 149.987 74.3276 149.51C74.15 149.029 74.0566 148.537 74.0566 148.042L74.0332 148.028Z" fill="#C69E66"/>
<path d="M86.2247 152.045C85.6733 152.045 85.1733 151.933 84.7247 151.708C84.2761 151.484 83.8882 151.189 83.5658 150.815C83.2433 150.445 82.9957 150.02 82.8181 149.543C82.6405 149.066 82.5518 148.579 82.5518 148.079C82.5518 147.579 82.6452 147.059 82.8321 146.582C83.019 146.105 83.2761 145.684 83.6078 145.315C83.9396 144.95 84.3275 144.656 84.7807 144.44C85.234 144.225 85.72 144.118 86.248 144.118C86.7761 144.118 87.2947 144.235 87.7433 144.464C88.1919 144.693 88.5751 144.997 88.8976 145.371C89.22 145.745 89.4676 146.171 89.6452 146.643C89.8228 147.116 89.9116 147.597 89.9116 148.093C89.9116 148.612 89.8181 149.113 89.6312 149.59C89.4443 150.067 89.1873 150.488 88.8602 150.852C88.5331 151.217 88.1452 151.507 87.6919 151.722C87.2387 151.937 86.7527 152.045 86.2247 152.045ZM83.5518 148.084C83.5518 148.481 83.6172 148.865 83.7433 149.234C83.8695 149.604 84.0518 149.931 84.2901 150.221C84.5237 150.506 84.8088 150.735 85.1359 150.904C85.4676 151.072 85.8321 151.156 86.234 151.156C86.6359 151.156 87.0284 151.067 87.3555 150.885C87.6873 150.707 87.9676 150.469 88.1966 150.179C88.4256 149.889 88.6032 149.562 88.7247 149.192C88.8461 148.827 88.9069 148.453 88.9069 148.079C88.9069 147.681 88.8415 147.298 88.7153 146.928C88.5891 146.559 88.4022 146.232 88.1639 145.946C87.9256 145.666 87.6452 145.437 87.3181 145.268C86.991 145.1 86.6312 145.016 86.234 145.016C85.8181 145.016 85.4443 145.105 85.1125 145.282C84.7807 145.46 84.5004 145.689 84.2714 145.974C84.0424 146.26 83.8602 146.587 83.7387 146.957C83.6125 147.321 83.5518 147.7 83.5518 148.079V148.084Z" fill="#C69E66"/>
<path d="M95.598 151.156C96.0513 151.156 96.4298 151.067 96.7335 150.89C97.0326 150.712 97.2756 150.483 97.4532 150.202C97.6307 149.921 97.7616 149.599 97.8317 149.234C97.9064 148.869 97.9438 148.5 97.9438 148.126V144.174H98.9345V148.126C98.9345 148.654 98.8737 149.154 98.7522 149.627C98.6307 150.099 98.4392 150.515 98.1728 150.876C97.9064 151.236 97.5653 151.521 97.1448 151.727C96.7242 151.937 96.2102 152.04 95.6121 152.04C95.0139 152.04 94.4625 151.928 94.0373 151.708C93.6121 151.488 93.2709 151.198 93.0092 150.833C92.7476 150.469 92.5606 150.052 92.4485 149.58C92.3363 149.108 92.2803 148.621 92.2803 148.121V144.169H93.2709V148.121C93.2709 148.509 93.3083 148.888 93.3878 149.248C93.4625 149.613 93.5934 149.931 93.7709 150.211C93.9485 150.492 94.1868 150.717 94.4859 150.89C94.7849 151.063 95.1541 151.147 95.6027 151.147L95.598 151.156Z" fill="#C69E66"/>
<path d="M102.781 146.026V151.994H101.79V144.179H102.561L107.402 150.268V144.188H108.393V151.994H107.556L102.781 146.026Z" fill="#C69E66"/>
<path d="M116.991 145.058H114.294V151.994H113.304V145.058H110.607V144.179H116.986V145.058H116.991Z" fill="#C69E66"/>
<path d="M119.215 151.994V144.179H122.561C122.906 144.179 123.224 144.249 123.514 144.394C123.804 144.539 124.051 144.726 124.262 144.964C124.472 145.203 124.635 145.47 124.752 145.769C124.869 146.068 124.93 146.367 124.93 146.676C124.93 146.947 124.892 147.209 124.813 147.462C124.734 147.714 124.626 147.944 124.481 148.149C124.336 148.355 124.168 148.533 123.963 148.678C123.762 148.823 123.537 148.93 123.285 148.996L125.177 151.989H124.056L122.276 149.183H120.205V151.989H119.215V151.994ZM120.205 148.304H122.57C122.776 148.304 122.963 148.262 123.126 148.173C123.29 148.084 123.43 147.967 123.551 147.813C123.668 147.663 123.762 147.49 123.827 147.289C123.892 147.092 123.925 146.887 123.925 146.671C123.925 146.456 123.888 146.246 123.808 146.049C123.734 145.853 123.631 145.685 123.5 145.53C123.374 145.381 123.22 145.264 123.047 145.18C122.874 145.095 122.691 145.053 122.5 145.053H120.201V148.304H120.205Z" fill="#C69E66"/>
<path d="M127.5 144.174L129.864 148.247L132.252 144.174H133.332L130.36 149.141V151.994H129.369V149.122L126.411 144.179H127.5V144.174Z" fill="#C69E66"/>
<path d="M138.477 148.028C138.477 147.56 138.561 147.092 138.724 146.625C138.888 146.157 139.131 145.741 139.449 145.371C139.766 145.002 140.159 144.702 140.621 144.473C141.084 144.244 141.607 144.132 142.196 144.132C142.892 144.132 143.491 144.291 143.991 144.604C144.491 144.918 144.86 145.329 145.103 145.839L144.322 146.344C144.206 146.096 144.065 145.886 143.897 145.717C143.734 145.549 143.551 145.413 143.36 145.31C143.163 145.208 142.967 145.133 142.762 145.091C142.556 145.049 142.355 145.025 142.159 145.025C141.724 145.025 141.341 145.114 141.009 145.296C140.678 145.474 140.397 145.713 140.168 146.003C139.939 146.293 139.771 146.62 139.659 146.985C139.547 147.35 139.491 147.714 139.491 148.079C139.491 148.491 139.561 148.879 139.696 149.253C139.832 149.622 140.019 149.95 140.262 150.24C140.505 150.53 140.79 150.754 141.121 150.923C141.453 151.091 141.808 151.175 142.201 151.175C142.406 151.175 142.617 151.152 142.832 151.1C143.047 151.049 143.257 150.965 143.453 150.852C143.649 150.74 143.836 150.595 144.009 150.422C144.182 150.249 144.322 150.043 144.435 149.8L145.262 150.254C145.135 150.548 144.963 150.806 144.738 151.03C144.514 151.255 144.262 151.442 143.981 151.596C143.701 151.75 143.402 151.867 143.084 151.947C142.766 152.026 142.463 152.068 142.159 152.068C141.621 152.068 141.131 151.952 140.687 151.718C140.238 151.484 139.85 151.175 139.528 150.796C139.201 150.418 138.949 149.987 138.771 149.51C138.593 149.029 138.5 148.537 138.5 148.042L138.477 148.028Z" fill="#C69E66"/>
<path d="M147.589 151.994V144.179H148.58V151.114H152.935V151.994H147.589Z" fill="#C69E66"/>
<path d="M158.047 151.156C158.501 151.156 158.879 151.067 159.183 150.89C159.482 150.712 159.725 150.483 159.902 150.202C160.08 149.921 160.211 149.599 160.281 149.234C160.356 148.869 160.393 148.5 160.393 148.126V144.174H161.384V148.126C161.384 148.654 161.323 149.154 161.201 149.627C161.08 150.099 160.888 150.515 160.622 150.876C160.356 151.236 160.015 151.521 159.594 151.727C159.173 151.937 158.659 152.04 158.061 152.04C157.463 152.04 156.912 151.928 156.487 151.708C156.061 151.488 155.72 151.198 155.458 150.833C155.197 150.469 155.01 150.052 154.898 149.58C154.786 149.108 154.729 148.621 154.729 148.121V144.169H155.72V148.121C155.72 148.509 155.758 148.888 155.837 149.248C155.912 149.613 156.043 149.931 156.22 150.211C156.398 150.492 156.636 150.717 156.935 150.89C157.234 151.063 157.603 151.147 158.052 151.147L158.047 151.156Z" fill="#C69E66"/>
<path d="M170.238 149.978C170.238 150.277 170.178 150.553 170.056 150.806C169.935 151.053 169.771 151.269 169.561 151.446C169.351 151.624 169.108 151.76 168.837 151.853C168.566 151.947 168.267 151.998 167.949 151.998H164.243V144.183H168.126C168.397 144.183 168.645 144.244 168.865 144.361C169.084 144.478 169.271 144.632 169.425 144.819C169.58 145.006 169.696 145.221 169.785 145.46C169.869 145.698 169.911 145.937 169.911 146.18C169.911 146.568 169.813 146.928 169.622 147.26C169.425 147.593 169.15 147.836 168.79 147.999C169.238 148.13 169.589 148.374 169.851 148.734C170.112 149.089 170.243 149.51 170.243 149.996L170.238 149.978ZM165.234 145.034V147.644H167.72C167.897 147.644 168.056 147.611 168.206 147.541C168.351 147.471 168.477 147.377 168.584 147.26C168.692 147.144 168.776 147.003 168.837 146.849C168.897 146.69 168.93 146.526 168.93 146.348C168.93 146.171 168.902 145.993 168.841 145.829C168.781 145.666 168.706 145.53 168.603 145.413C168.505 145.296 168.383 145.203 168.238 145.137C168.094 145.072 167.944 145.039 167.781 145.039H165.229L165.234 145.034ZM169.238 149.8C169.238 149.622 169.206 149.454 169.145 149.29C169.084 149.127 169 148.982 168.893 148.855C168.785 148.729 168.659 148.631 168.514 148.556C168.369 148.481 168.206 148.444 168.028 148.444H165.234V151.128H167.949C168.131 151.128 168.299 151.091 168.453 151.016C168.608 150.941 168.743 150.848 168.86 150.726C168.977 150.604 169.07 150.464 169.136 150.3C169.201 150.137 169.234 149.968 169.234 149.795L169.238 149.8Z" fill="#C69E66"/>
<path d="M97.4303 7.14648C80.6546 7.14648 67.0098 20.8029 67.0098 37.5928V61.9546C67.0098 78.0196 79.5051 91.2224 95.2901 92.3214C95.9958 92.3682 96.7154 92.4009 97.4303 92.4009H97.706C114.356 92.2513 127.851 78.6463 127.851 61.9546V37.5928C127.851 20.8029 114.206 7.14648 97.4303 7.14648ZM125.884 61.9546C125.884 76.7709 114.519 88.9915 100.038 90.3057C98.9771 90.4039 98.0705 89.5387 98.1079 88.4677C98.3182 82.5982 98.7574 70.4291 98.8649 69.3768C99.1219 68.245 103.117 66.7343 102.108 65.7896C100.958 65.7008 100.005 67.1553 98.9724 67.1646C98.2668 67.1038 98.1079 62.5252 98.5612 62.0996C99.7901 60.5188 102.276 60.1353 103.954 59.2794C107.028 58.4844 110.281 59.7986 113.393 59.242C114.318 59.0175 116.477 58.5639 116.771 57.6519C116.113 56.8475 114.444 57.9559 113.542 58.0447C112.276 58.3581 111.066 58.1944 109.771 58.1242C106.865 58.0962 107.454 57.6706 109.342 56.9129C110.617 56.3938 112.094 56.3143 113.407 55.9869C114.458 55.7203 114.79 55.1123 113.799 54.9627C112.884 54.8738 111.856 55.1685 110.94 55.2947C107.187 56.1787 103.771 58.3347 100.192 59.6115C95.9116 61.7161 99.1219 55.2059 99.9444 53.6625C100.407 52.671 108.019 56.2208 106.426 53.9665C105.795 53.3585 103.547 53.3071 103.192 52.7084C103.93 52.2454 108.468 52.6102 108.29 51.4223C107.071 50.4682 102.86 52.0397 102.318 51.3615C104.215 49.0231 107.818 48.8173 110.617 48.1953C112.071 48.1579 113.996 49.2756 115.379 49.0605C116.687 48.3917 113.019 47.6855 113.729 47.4096C114.613 46.867 120.211 46.4087 120.332 45.2161V45.1881C120.314 43.9487 109.36 47.5358 106.678 47.8819C104.87 48.3169 103.743 48.4011 102.328 49.7386C100.561 51.0482 98.7901 52.3249 98.2434 54.5371C97.5051 56.3143 97.5144 54.5652 97.3976 53.2089C97.5144 51.7731 96.3369 48.1766 97.6827 47.5452C101.888 46.2497 106.295 45.609 110.285 43.6728C110.972 43.0648 115.608 44.8046 114.5 43.2892C114.136 42.9057 113.304 42.8449 113.304 42.396C113.538 41.8628 115.131 41.484 114.72 40.6936C113.542 40.4083 111.468 41.961 110.094 42.4427C108.916 43.032 109.37 42.3352 109.809 41.6383C110.094 41.2548 110.743 39.819 109.818 40.095C108.669 40.7637 107.814 43.0648 106.743 43.8505C104.809 44.6455 100.636 45.4733 98.2201 46.1983C96.7855 46.7782 96.3135 45.3704 97.8369 44.407C99.6733 43.4249 101.393 41.8909 103.514 41.7132C109.066 41.2501 106.561 39.8564 102.799 40.6609C101.276 40.2961 95.2481 45.9878 96.8976 41.4746C97.8322 40.3522 99.2247 39.2344 100.622 38.8416C101.192 38.7246 106.743 39.7676 104.944 38.3505C104.239 37.9576 103.155 38.0044 102.388 37.7519C101.683 37.2187 104.028 36.0822 104.814 36.1196C105.58 35.7969 113.701 35.5584 111.954 34.2723C110.785 33.711 107.996 35.0393 107.318 34.319C107.542 33.6035 108.43 32.9019 108.613 32.1677C108.711 30.0163 105.884 34.3284 105.281 34.5388C104.477 35.1001 103.524 35.1001 102.599 35.6613C101.519 36.1945 98.8743 38.8977 100.351 35.7689C100.412 34.7166 104.613 32.4249 103.22 31.9151C102.374 32.004 101.608 32.7897 100.804 33.3883C98.8976 34.6184 98.9257 37.3216 97.692 38.9725C95.6967 41.3811 96.0799 34.8522 96.0892 34.0571C96.6593 32.3548 98.7714 31.3352 100.056 30.2128C102.197 29.3569 105.93 28.936 108.346 28.2859C109.379 28.1503 109.762 27.3739 108.757 27.2617C107.589 27.1821 106.585 27.5563 107.482 26.0924C107.757 25.6622 107.954 24.5678 107.159 25.0589C106.295 25.6014 105.678 27.1026 104.743 27.7153C102.472 28.6974 99.5752 28.473 97.8369 30.498C97.1686 31.0078 95.7948 32.4343 95.7434 30.7459C95.7154 29.2119 95.192 27.4113 95.9303 26.0083C97.5705 23.2068 100.211 21.5372 102.795 19.6197C104.29 17.7817 101.617 18.9041 100.86 19.6664C99.1126 20.9339 99.1593 20.8357 98.6873 19.1239C98.0098 18.1324 97.7714 20.3539 97.7341 20.7842C97.6266 22.0703 96.6827 23.5248 95.6032 24.1843C94.935 23.7119 94.935 20.064 95.3556 19.3578C95.5612 18.7404 97.2107 15.9764 95.8182 16.4394C94.8042 17.3046 94.5331 19.2221 92.8789 18.6141C92.6126 18.5533 92.0752 18.4785 92.0658 18.8106C92.4584 19.7834 93.9023 20.2744 93.9023 21.5325C94.0986 23.5389 94.8369 28.8378 92.9303 23.7353C91.2107 22.3089 93.7948 28.4168 89.6873 24.3246C89.2247 23.8616 87.7434 22.4959 87.7247 23.5482C87.8509 24.4322 89.5612 25.2506 88.5986 26.1252C87.9397 26.9109 89.5705 26.9296 90.0612 26.9623C91.2481 26.8922 95.7107 27.6498 93.9116 29.3008C91.6219 29.6936 89.0986 28.9968 87.1266 27.748C86.164 27.1775 83.463 25.751 84.3556 27.3178C84.7855 27.9772 86.3976 28.2812 85.7294 29.1651C84.2154 30.8348 86.8509 29.8713 87.6733 29.8339C88.5658 29.7544 89.1546 30.0818 90.1172 30.2548C91.2948 30.4887 92.6219 30.4045 93.7715 30.7646C94.9397 30.961 95.164 34.5809 93.5752 33.987C92.8088 33.7297 91.5238 30.8628 91.3462 32.8178C91.3976 35.7689 84.2528 30.47 83.6359 31.9619C84.3836 33.2106 85.2855 33.1031 83.1172 33.6315C82.4397 33.7298 80.1313 34.4266 81.3976 35.0065C82.421 35.1422 84.5705 34.3752 85.678 34.1928C87.1827 33.7718 88.4303 34.5388 89.921 34.7727C91.1873 35.0299 92.6126 35.1655 93.8602 35.5023C95.5098 35.9559 95.1359 38.9444 93.3415 38.7761C90.7668 39.2391 90.1126 37.5648 88.1827 37.1626C87.6546 37.4853 88.6172 38.2055 88.4771 38.6358C88.1313 39.0567 87.2201 38.9304 86.4817 38.7948C85.4023 38.5282 84.9303 37.3309 84.2528 36.592C83.4397 35.666 83.1827 36.4938 83.5378 37.2795C84.3415 38.9725 82.4397 38.1166 81.1219 37.967C80.0892 37.663 77.4958 37.4572 78.921 38.5469C79.5892 38.9211 80.6219 38.9304 81.1219 39.2157C81.6406 39.501 78.9023 40.5346 80.3649 40.8199C83.4864 40.2119 83.5565 39.501 87.2528 40.0622C88.1359 40.1417 89.9023 39.8564 90.2481 40.1417C89.8743 40.4457 87.3322 41.3016 88.5191 41.8628C90.3649 41.9423 92.6827 39.8564 94.5799 40.2212C95.5892 41.5869 95.0331 44.0469 95.2855 45.7352C95.421 47.3488 95.4116 48.5881 93.3883 47.8773C91.15 47.5031 91.9537 44.2199 90.8836 43.0507C89.421 42.4614 91.0331 46.5818 90.5518 46.8951C90.0892 46.6472 89.4397 45.6744 88.5799 44.7438C88.0098 44.0937 86.7341 42.4147 86.4958 43.6026C86.6827 44.5286 87.8415 45.5014 88.3602 46.2591C89.1359 47.3721 87.407 46.68 86.5238 46.5911C85.7761 46.4835 85.0004 46.1795 84.8042 45.3705C84.5799 44.8981 84.1453 40.9648 83.2715 42.5269C83.0378 43.1957 83.5752 44.3743 83.2901 44.9449C82.692 45.2301 81.7761 44.2059 81.0705 44.393C80.1873 44.8373 82.5518 46.2123 83.0752 46.5537C84.4303 47.5358 86.0098 47.5873 87.5752 47.9474C87.8415 48.0176 87.907 48.0971 87.7528 48.1625C86.9397 48.3309 84.8042 49.0371 83.8743 48.3215C82.206 47.2599 77.5565 44.2714 75.6032 43.0414C74.7387 42.4708 74.0705 43.1583 74.935 43.8785C75.7387 44.7438 78.5799 45.8428 78.6873 46.6519C78.1172 46.9091 77.1967 46.8109 76.6733 47.171C76.0752 47.592 76.7808 47.8585 77.3135 47.91C78.3462 47.9988 81.8135 47.5873 81.9303 48.7144C81.4584 49.1353 80.4584 48.9389 79.9443 49.3318C78.9911 50.384 82.0472 50.038 82.8229 50.038C86.2528 50.3045 95.6126 46.0673 95.5238 51.9368C95.4163 52.961 95.9864 55.103 95.3369 55.6736C94.6313 55.566 94.1266 54.6914 93.421 54.4856C92.7621 54.2191 92.7341 54.8317 93.164 55.3883C94.7855 57.2777 96.4443 58.143 92.4257 57.7174C91.5425 57.6566 88.692 57.3245 89.9584 58.5545C91.5004 59.1859 94.6546 58.2692 95.6079 60.0698C95.9023 61.2016 96.4116 63.6289 94.3415 62.6842C93.5565 62.4784 84.6967 59.2327 88.5752 62.0341C89.5378 62.427 88.692 62.6842 88.3602 63.1145C87.9397 64.6298 94.893 62.0715 92.1032 64.4801C91.65 64.7654 90.7855 65.8364 91.8369 65.7101C93.22 65.3968 95.7481 62.9461 95.9537 65.9065C95.9116 67.8942 95.4303 81.9435 95.1733 88.3929C95.1313 89.4545 94.1733 90.2402 93.1266 90.0812C79.4771 88.0094 68.9724 76.1769 68.9724 61.9359V37.5741C68.9724 21.5746 82.2201 8.62437 98.2995 9.10609C113.771 9.57377 125.884 22.6877 125.884 38.1774V61.9312V61.9546Z" fill="#C69E66"/>
<path d="M23.5697 103.101C23.8548 103.195 24.1398 103.906 24.1398 103.999C24.2333 104.897 24.6118 107.647 24.6118 107.834C24.6118 108.639 24.6118 109.111 24.28 109.111C23.9015 109.111 23.3314 108.779 23.1445 108.115C22.5744 106.408 21.2987 104.991 20.8267 104.706C19.9763 104.042 18.8407 103.616 17.4669 103.616C14.294 103.616 12.023 105.982 12.023 109.158C12.023 112.521 14.4342 113.989 18.6024 116.786C22.2473 119.251 25.1351 121.711 25.1351 125.976C25.1351 128.342 23.808 130.999 21.252 132.655C19.7379 133.651 16.9436 134.362 14.8174 134.362C13.3034 134.362 10.0837 133.842 8.61645 133.132C8.14449 132.846 7.52766 131.803 7.52766 131.616C7.28935 130.007 6.81738 127.922 6.81738 127.164C6.81738 126.972 7.28935 126.266 7.48093 126.266C7.85944 126.266 8.56972 127.496 9.23327 128.965C10.4622 131.57 13.5884 132.753 15.3875 132.753C18.6538 132.753 21.1164 130.433 21.1164 127.019C21.1164 125.031 20.1679 122.899 15.2006 119.723C11.1772 117.118 8.33607 114.368 8.33607 110.346C8.33607 108.12 9.3314 105.987 10.9389 104.565C12.4062 103.237 14.6305 102.246 17.9436 102.246C20.2613 102.246 22.7239 102.956 23.5744 103.097L23.5697 103.101Z" fill="#C69E66"/>
<path d="M46.098 116.603C47.0466 117.88 47.4718 119.681 47.4718 121.72C47.5185 124.704 47.612 127.641 47.6634 130.484C47.6634 131.668 48.2802 132.046 49.5092 132.332C50.4578 132.523 50.8363 132.804 50.8363 133.089C50.8363 133.515 50.4578 133.707 49.5606 133.707C47.9531 133.707 47.4298 133.566 45.8223 133.566C44.7335 133.566 43.7849 133.66 42.4157 133.66C41.7055 133.66 41.4671 133.421 41.4671 133.089C41.4671 132.804 41.8924 132.57 42.4625 132.425C43.6447 132.046 43.7896 131.906 43.9765 130.106C44.0699 129.208 43.9765 123.993 43.9765 123.235C43.9765 120.63 43.7382 119.115 43.2195 118.498C42.4625 117.6 41.2335 116.935 39.3877 116.935C37.355 116.935 35.7896 117.833 35.6026 118.025C35.5092 118.119 34.8924 118.876 34.8456 120.345C34.7055 122.333 34.7055 128.492 34.7522 130.199C34.8456 131.761 35.5092 132.046 36.598 132.332C37.2615 132.523 37.64 132.851 37.64 133.089C37.64 133.515 37.1213 133.66 36.4578 133.66C36.0793 133.66 33.7148 133.566 32.5746 133.566C31.4344 133.566 29.7849 133.707 28.9765 133.707C28.5512 133.707 27.8877 133.566 27.8877 133.089C27.8877 132.851 28.2662 132.57 29.2615 132.285C30.4905 131.859 30.9671 131.336 31.1073 129.586C31.2475 127.599 31.5793 121.201 31.5793 116.416C31.5793 114.522 31.626 106.515 31.4391 105.14C31.2989 103.91 31.2008 103.812 29.8783 102.961C29.6868 102.867 29.4064 102.39 29.4064 102.012C29.4064 101.918 29.4531 101.82 29.5466 101.773C31.0139 101.348 33.1447 100.875 34.2802 100.113C34.4718 100.019 34.897 99.7808 35.1774 99.7808C35.369 99.7808 35.4625 100.16 35.4625 100.3C34.9905 103.709 34.7989 115.504 34.7989 116.879C34.7989 117.165 35.084 117.211 35.1307 117.165C37.0699 115.411 39.1073 114.419 41.0933 114.419C43.4578 114.419 45.1167 115.224 46.112 116.599L46.098 116.603Z" fill="#C69E66"/>
<path d="M67.1589 116.271C68.201 117.268 68.8131 118.591 68.8131 120.252C68.8131 120.537 68.4346 121.056 67.9159 121.056C67.3972 121.056 59.3038 121.056 57.1262 121.009C56.986 121.009 56.7944 121.248 56.7477 121.388C56.6075 121.767 56.5094 122.571 56.5094 123.048C56.5094 124.896 57.2664 127.075 58.3084 128.45C59.3505 129.872 61.3365 131.055 63.6075 131.055C65.6916 131.055 67.1122 130.536 67.9159 129.348C68.1075 129.063 68.3412 128.777 68.5327 128.777C68.8178 128.777 68.9112 129.109 68.9112 129.348C68.9112 129.727 68.7197 130.246 68.5795 130.484C66.9253 132.902 64.4159 134.039 61.715 134.039C56.6028 134.039 53.1963 130.152 53.1963 124.61C53.1963 120.822 55.1823 117.029 58.8739 115.327C60.1028 114.756 61.6636 114.476 62.472 114.476C64.1262 114.476 65.972 115.093 67.1589 116.276V116.271ZM57.2197 119.209C57.1262 119.447 57.3131 119.728 57.4112 119.728C58.6402 119.774 61.1496 119.774 63.5187 119.728C64.6542 119.728 65.1262 119.489 65.1262 118.544C65.1262 117.216 63.7056 115.701 62 115.701C59.8692 115.701 58.0701 117.029 57.2197 119.204V119.209Z" fill="#C69E66"/>
<path d="M72.7476 116.08C74.3083 115.56 75.7756 114.85 76.2522 114.564C76.8223 114.185 77.056 113.994 77.2008 113.994C77.3924 113.994 77.6261 114.419 77.6261 114.564C77.6261 115.415 77.5326 116.271 77.5326 117.169C77.5326 117.361 77.7709 117.408 77.8644 117.361C79.7102 115.607 81.7943 114.424 83.2616 114.424C85.2008 114.424 85.6261 115.607 85.6261 116.033C85.6261 116.126 85.4859 116.458 85.341 116.697C84.8223 117.455 83.6821 118.736 83.4018 118.876C83.3083 118.923 82.8831 118.83 82.7382 118.736C82.2195 118.264 81.084 117.693 80.1354 117.693C79.3317 117.693 78.5279 117.833 78.0513 118.357C77.7195 118.736 77.5793 119.162 77.5793 119.4C77.5793 120.35 77.8177 128.922 77.8644 129.633C77.9578 131.008 78.2429 131.906 79.0934 132.051C79.7102 132.191 80.5606 132.43 81.2709 132.622C82.0279 132.86 82.1214 133.192 82.1214 133.379C82.1214 133.618 81.6962 133.805 80.9859 133.805C79.8036 133.805 78.1448 133.566 75.4018 133.566C73.9812 133.566 73.4158 133.758 72.2756 133.758C71.7569 133.758 71.2803 133.566 71.2803 133.187C71.2803 132.902 71.8504 132.715 72.2289 132.57C74.0747 131.953 74.2149 131.48 74.2616 128.637V119.587C74.2616 119.115 74.2616 118.497 73.7429 118.165C72.6074 117.267 72.1354 117.076 72.1354 116.889C72.1354 116.748 72.2289 116.271 72.7522 116.084L72.7476 116.08Z" fill="#C69E66"/>
<path d="M95.1816 114.943C96.0321 114.943 96.4106 115.228 96.4106 115.462C96.4106 115.748 96.032 116.033 95.2283 116.22C94.1863 116.412 93.9526 116.978 94.3778 118.067C94.9479 119.915 98.1162 128.015 98.4479 128.586C98.5881 128.871 98.7797 128.824 98.8732 128.586C99.3919 127.543 101.242 123.516 102.186 121.383C102.425 120.864 102.425 120.626 102.425 120.434C102.378 120.102 102.046 118.872 101.668 118.161C101.149 117.211 100.77 116.454 99.6816 116.173C99.0648 115.981 98.6395 115.794 98.6395 115.416C98.6395 115.083 98.9713 114.943 99.775 114.943C100.439 114.943 101.859 115.083 102.948 115.083C103.798 115.083 105.219 114.943 106.261 114.943C106.971 114.943 107.397 115.182 107.397 115.462C107.397 115.794 107.065 116.08 106.261 116.22C105.032 116.505 104.887 117.071 104.887 117.263C104.887 117.595 105.126 118.067 105.457 118.97C105.742 119.681 108.107 126.121 109.102 128.445C109.196 128.777 109.387 128.684 109.527 128.398C110.331 126.691 111.752 122.903 112.7 120.49C113.219 119.115 113.504 118.072 113.504 117.646C113.504 117.174 113.411 116.603 111.658 116.178C111.233 116.038 110.569 115.846 110.569 115.42C110.569 115.135 111.186 114.948 111.658 114.948C112.177 114.948 113.883 115.088 114.593 115.088C116.154 115.088 117.336 114.85 118.093 114.85C118.663 114.85 119.088 115.041 119.088 115.322C119.088 115.748 118.569 115.893 117.999 116.033C116.439 116.505 116.247 117.029 115.49 118.306C113.929 121.103 112.364 124.984 110.948 128.492C110.144 130.48 109.434 132.046 108.962 133.608C108.822 134.081 108.583 134.179 108.345 134.179C108.107 134.179 107.728 133.847 107.448 133.468C107.256 132.949 106.691 131.102 106.219 129.965C105.602 128.45 104.088 124.662 103.284 122.716C103.238 122.623 102.999 122.623 102.953 122.763C101.817 125.129 100.065 128.777 98.6442 132.332C98.4526 132.851 97.8872 134.273 97.462 134.273C97.0367 134.273 96.7984 134.132 96.6115 133.562C96.518 133.323 95.9012 131.574 95.1909 129.488C94.8592 128.539 92.1162 121.673 91.1208 119.353C90.3638 117.6 89.7937 116.51 88.4713 116.178C87.8078 116.038 87.2891 115.752 87.2891 115.467C87.2891 115.041 87.761 114.896 88.6629 114.896C89.4666 114.896 90.8405 115.088 91.8825 115.088C93.0648 115.088 94.3919 114.948 95.1956 114.948L95.1816 114.943Z" fill="#C69E66"/>
<path d="M139.527 124.087C139.527 128.02 137.158 131.097 135.41 132.234C133.518 133.609 131.672 134.128 129.541 134.128C127.41 134.128 124.999 133.132 123.247 131.663C121.214 130.003 119.742 126.785 119.742 124.414C119.742 120.813 121.256 118.54 123.055 117.024C124.523 115.743 126.887 114.419 130.06 114.419C134.747 114.419 139.527 118.114 139.527 124.082V124.087ZM126.088 117.216C124.859 118.353 123.77 120.817 123.77 123.277C123.77 124.839 123.962 126.308 124.34 127.491C125.523 131.046 128.224 132.748 130.495 132.748C131.013 132.748 132.055 132.51 133.382 131.186C134.565 129.909 135.513 126.972 135.513 124.933C135.513 122.468 134.943 119.77 133.149 117.684C132.107 116.547 130.401 115.837 129.172 115.837C128.177 115.837 127.088 116.356 126.097 117.212L126.088 117.216Z" fill="#C69E66"/>
<path d="M162.766 124.087C162.766 128.02 160.396 131.097 158.649 132.234C156.756 133.609 154.91 134.128 152.78 134.128C150.649 134.128 148.237 133.132 146.485 131.663C144.452 130.003 142.98 126.785 142.98 124.414C142.98 120.813 144.494 118.54 146.294 117.024C147.761 115.743 150.125 114.419 153.298 114.419C157.985 114.419 162.766 118.114 162.766 124.082V124.087ZM149.326 117.216C148.097 118.353 147.009 120.817 147.009 123.277C147.009 124.839 147.2 126.308 147.579 127.491C148.761 131.046 151.462 132.748 153.733 132.748C154.251 132.748 155.294 132.51 156.621 131.186C157.803 129.909 158.751 126.972 158.751 124.933C158.751 122.468 158.181 119.77 156.387 117.684C155.345 116.547 153.639 115.837 152.41 115.837C151.415 115.837 150.326 116.356 149.336 117.212L149.326 117.216Z" fill="#C69E66"/>
<path d="M180.513 114.611C180.705 114.658 180.845 114.326 180.892 114.092C181.13 112.81 180.985 105.566 180.845 104.429C180.798 104.191 180.798 103.625 178.621 102.489C178.196 102.25 178.149 102.157 178.149 102.063C178.149 101.871 178.668 101.305 178.953 101.259C180.041 101.118 182.551 100.407 183.78 99.9303C184.065 99.8368 184.205 99.79 184.397 99.79C184.537 99.79 184.822 100.122 184.775 100.548C184.537 103.059 184.35 104.762 184.35 119.26C184.35 128.403 184.443 129.161 184.443 130.059C184.537 131.812 184.915 132 185.2 132C185.719 132 187.284 131.668 187.756 131.621C187.948 131.621 188.041 131.859 188.041 131.906C188.041 132.238 187.471 133.043 187.238 133.089C186.34 133.23 183.878 133.707 182.981 134.039C181.892 134.418 181.513 134.511 181.275 134.511C181.083 134.511 180.756 134.132 180.756 133.894C180.756 133.468 180.85 132.612 180.85 131.953C180.85 131.761 180.658 131.668 180.565 131.668C178.387 133.608 175.976 134.034 174.411 134.034C172.14 134.034 169.962 132.991 168.495 131.429C166.981 129.722 166.224 127.309 166.224 124.938C166.224 120.293 168.92 117.595 171.242 116.22C173.42 114.892 176.214 114.419 177.49 114.419C179.196 114.419 179.953 114.513 180.518 114.611H180.513ZM172.041 117.646C171.144 118.544 170.055 120.962 170.055 123.614C170.055 127.402 172.705 131.761 176.775 131.761C178.289 131.761 179.378 131.242 180.228 130.625C180.322 130.531 180.939 129.016 180.985 127.5C181.032 124.47 180.985 121.865 180.845 119.639C180.798 119.26 180.373 118.409 179.803 117.838C178.476 116.51 176.677 115.991 175.733 115.991C174.219 115.991 172.892 116.795 172.041 117.651V117.646Z" fill="#C69E66"/>
</svg>
