<svg width="150" height="150" viewBox="0 0 150 150" fill="none" xmlns="http://www.w3.org/2000/svg">
<rect x="9" y="9" width="132" height="132" fill="#C69E66"/>
<rect x="0.5" y="0.5" width="149" height="149" stroke="#C69E66"/>
<path d="M61.0104 97C60.1609 97 59.3114 96.7816 58.533 96.3414C57.7598 95.9119 57.117 95.2846 56.6715 94.5248C56.226 93.765 55.9941 92.9006 56.0001 92.0216V58.9786C56.0001 57.1678 56.9467 55.5531 58.533 54.6589C60.1175 53.7629 62.0003 53.7818 63.5692 54.7087L91.5538 71.2311C93.0846 72.1356 94 73.7315 94 75.501C94 77.2705 93.0846 78.8663 91.5538 79.7709L63.571 96.2932C62.7973 96.7537 61.9125 96.9979 61.0104 97ZM61.0173 57.4447C60.7468 57.4471 60.4814 57.5175 60.2458 57.6493C60.007 57.7805 59.8084 57.9733 59.6711 58.2073C59.5337 58.4414 59.4628 58.7079 59.4657 58.9786V92.0233C59.4657 92.8264 60.01 93.2202 60.2458 93.3526C60.4818 93.4892 60.7506 93.5599 61.0238 93.5571C61.297 93.5544 61.5643 93.4784 61.7974 93.3372L89.7803 76.8148C90.4599 76.4141 90.5344 75.7624 90.5344 75.501C90.5344 75.2396 90.4616 74.5878 89.7803 74.1872L61.7957 57.6648C61.5617 57.5215 61.2923 57.4453 61.0173 57.4447Z" fill="white"/>
</svg>
