<svg width="32" height="32" viewBox="0 0 32 32" fill="none" xmlns="http://www.w3.org/2000/svg">
<circle cx="16" cy="16" r="16" fill="url(#paint0_linear_170_2049)"/>
<path d="M7 16.5C7 16.7088 7.07902 16.909 7.21967 17.0566C7.36032 17.2043 7.55109 17.2872 7.75 17.2872H22.4395L19.2205 20.6659C19.0839 20.8144 19.0083 21.0132 19.01 21.2196C19.0117 21.426 19.0906 21.6235 19.2296 21.7694C19.3687 21.9154 19.5568 21.9982 19.7534 22C19.9501 22.0018 20.1395 21.9224 20.281 21.779L24.781 17.0558C24.8504 16.9833 24.9055 16.8972 24.9431 16.8024C24.9806 16.7076 25 16.6059 25 16.5031V16.5C25 16.3977 24.9805 16.2953 24.9415 16.1993C24.9041 16.1038 24.8491 16.0172 24.7795 15.9442L20.2795 11.221C20.138 11.0776 19.9486 10.9982 19.7519 11C19.5553 11.0018 19.3672 11.0846 19.2281 11.2306C19.0891 11.3765 19.0102 11.574 19.0085 11.7804C19.0068 11.9868 19.0824 12.1856 19.219 12.3341L22.4395 15.7128H7.75C7.55109 15.7128 7.36032 15.7957 7.21967 15.9434C7.07902 16.091 7 16.2912 7 16.5Z" fill="white"/>
<defs>
<linearGradient id="paint0_linear_170_2049" x1="-2.32157e-07" y1="21.2312" x2="32" y2="10.7688" gradientUnits="userSpaceOnUse">
<stop stop-color="#353D30"/>
<stop offset="1" stop-color="#697D5D"/>
</linearGradient>
</defs>
</svg>
